<svg xmlns="http://www.w3.org/2000/svg" xmlns:xlink="http://www.w3.org/1999/xlink" contentStyleType="text/css" height="621px" preserveAspectRatio="none" style="width:391px;height:621px;background:#FFFFFF;" version="1.1" viewBox="0 0 391 621" width="391px" zoomAndPan="magnify"><defs/><g><!--cluster system--><g id="cluster_system"><rect fill="none" height="608" rx="2.5" ry="2.5" style="stroke:#181818;stroke-width:1.0;" width="230.98" x="154.6" y="7"/><text fill="#000000" font-family="sans-serif" font-size="14" font-weight="bold" lengthAdjust="spacing" textLength="56.5674" x="241.8063" y="21.9951">system</text></g><g id="elem_UC1"><ellipse cx="270.0941" cy="128.0028" fill="#F1F1F1" rx="93.5141" ry="21.1028" style="stroke:#181818;stroke-width:0.5;"/><text fill="#000000" font-family="sans-serif" font-size="14" lengthAdjust="spacing" textLength="149.6523" x="195.2679" y="130.8495">Parcourir les produits</text></g><g id="elem_UC2"><ellipse cx="270.0927" cy="56.9993" fill="#F1F1F1" rx="58.2027" ry="14.7593" style="stroke:#181818;stroke-width:0.5;"/><text fill="#000000" font-family="sans-serif" font-size="14" lengthAdjust="spacing" textLength="64.5039" x="234.8407" y="60.7468">S'inscrire</text></g><g id="elem_UC3"><ellipse cx="270.0922" cy="350.9984" fill="#F1F1F1" rx="69.7422" ry="16.3484" style="stroke:#181818;stroke-width:0.5;"/><text fill="#000000" font-family="sans-serif" font-size="14" lengthAdjust="spacing" textLength="92.1279" x="221.0283" y="354.746">Se connecter</text></g><g id="elem_UC4"><ellipse cx="270.0856" cy="280.9951" fill="#F1F1F1" rx="81.3256" ry="18.6651" style="stroke:#181818;stroke-width:0.5;"/><text fill="#000000" font-family="sans-serif" font-size="14" lengthAdjust="spacing" textLength="121.7139" x="208.051" y="284.2283">Ajouter au panier</text></g><g id="elem_UC5"><ellipse cx="270.0858" cy="205.9972" fill="#F1F1F1" rx="96.5358" ry="21.7072" style="stroke:#181818;stroke-width:0.5;"/><text fill="#000000" font-family="sans-serif" font-size="14" lengthAdjust="spacing" textLength="156.3926" x="191.8895" y="208.8438">Acc&#233;der &#224; son compte</text></g><g id="elem_UC6"><ellipse cx="270.0876" cy="576.9975" fill="#F1F1F1" rx="99.4876" ry="22.2975" style="stroke:#181818;stroke-width:0.5;"/><text fill="#000000" font-family="sans-serif" font-size="14" lengthAdjust="spacing" textLength="162.9277" x="188.6237" y="579.8442">supprimer des produits</text></g><g id="elem_UC7"><ellipse cx="270.0869" cy="498.9994" fill="#F1F1F1" rx="93.4469" ry="21.0894" style="stroke:#181818;stroke-width:0.5;"/><text fill="#000000" font-family="sans-serif" font-size="14" lengthAdjust="spacing" textLength="149.502" x="195.3359" y="501.8461">modifier des produits</text></g><g id="elem_UC8"><ellipse cx="270.0872" cy="423.0034" fill="#F1F1F1" rx="89.7172" ry="20.3434" style="stroke:#181818;stroke-width:0.5;"/><text fill="#000000" font-family="sans-serif" font-size="14" lengthAdjust="spacing" textLength="141.1006" x="199.5369" y="425.8501">ajouter des produits</text></g><!--entity Visiteur--><g id="elem_Visiteur"><ellipse cx="58.3009" cy="63.35" fill="#F1F1F1" rx="8" ry="8" style="stroke:#181818;stroke-width:0.5;"/><path d="M58.3009,71.35 L58.3009,98.35 M45.3009,79.35 L71.3009,79.35 M58.3009,98.35 L45.3009,113.35 M58.3009,98.35 L71.3009,113.35 " fill="none" style="stroke:#181818;stroke-width:0.5;"/><text fill="#000000" font-family="sans-serif" font-size="14" lengthAdjust="spacing" textLength="53.3818" x="31.61" y="127.8451">Visiteur</text></g><!--entity Client--><g id="elem_Client"><ellipse cx="58.3051" cy="230.35" fill="#F1F1F1" rx="8" ry="8" style="stroke:#181818;stroke-width:0.5;"/><path d="M58.3051,238.35 L58.3051,265.35 M45.3051,246.35 L71.3051,246.35 M58.3051,265.35 L45.3051,280.35 M58.3051,265.35 L71.3051,280.35 " fill="none" style="stroke:#181818;stroke-width:0.5;"/><text fill="#000000" font-family="sans-serif" font-size="14" lengthAdjust="spacing" textLength="40.5303" x="38.04" y="294.8451">Client</text></g><!--entity Administrateur--><g id="elem_Administrateur"><ellipse cx="58.3018" cy="431.35" fill="#F1F1F1" rx="8" ry="8" style="stroke:#181818;stroke-width:0.5;"/><path d="M58.3018,439.35 L58.3018,466.35 M45.3018,447.35 L71.3018,447.35 M58.3018,466.35 L45.3018,481.35 M58.3018,466.35 L71.3018,481.35 " fill="none" style="stroke:#181818;stroke-width:0.5;"/><text fill="#000000" font-family="sans-serif" font-size="14" lengthAdjust="spacing" textLength="104.6035" x="6" y="495.8451">Administrateur</text></g><!--link Administrateur to UC3--><g id="link_Administrateur_UC3"><path d="M96.05,422.52 C110.68,409.02 128.38,394.81 146.6,385 C167.21,373.92 185.9185,367.5921 207.5985,362.3421 " fill="none" id="Administrateur-to-UC3" style="stroke:#181818;stroke-width:1.0;"/><polygon fill="#181818" points="213.43,360.93,203.7414,359.1606,208.5705,362.1068,205.6242,366.9358,213.43,360.93" style="stroke:#181818;stroke-width:1.0;"/></g><!--link Administrateur to UC6--><g id="link_Administrateur_UC6"><path d="M96.17,499.64 C110.82,513.27 128.49,527.74 146.6,538 C163.2,547.41 176.662,553.0621 194.842,558.8421 " fill="none" id="Administrateur-to-UC6" style="stroke:#181818;stroke-width:1.0;"/><polygon fill="#181818" points="200.56,560.66,193.195,554.1211,195.795,559.1451,190.7711,561.7451,200.56,560.66" style="stroke:#181818;stroke-width:1.0;"/></g><!--link Administrateur to UC7--><g id="link_Administrateur_UC7"><path d="M110.89,470.34 C136.61,475 162.2458,479.652 190.3858,484.742 " fill="none" id="Administrateur-to-UC7" style="stroke:#181818;stroke-width:1.0;"/><polygon fill="#181818" points="196.29,485.81,188.1457,480.2719,191.3698,484.92,186.7217,488.1442,196.29,485.81" style="stroke:#181818;stroke-width:1.0;"/></g><!--link Administrateur to UC8--><g id="link_Administrateur_UC8"><path d="M110.89,451.66 C137.46,446.84 164.336,441.969 193.166,436.749 " fill="none" id="Administrateur-to-UC8" style="stroke:#181818;stroke-width:1.0;"/><polygon fill="#181818" points="199.07,435.68,189.5013,433.3475,194.15,436.5708,190.9267,441.2195,199.07,435.68" style="stroke:#181818;stroke-width:1.0;"/></g><!--link Visiteur to UC1--><g id="link_Visiteur_UC1"><path d="M85.45,97.36 C112.47,101.87 150.0017,108.1334 187.8517,114.4434 " fill="none" id="Visiteur-to-UC1" style="stroke:#181818;stroke-width:1.0;"/><polygon fill="#181818" points="193.77,115.43,185.5503,110.0045,188.8381,114.6078,184.2348,117.8956,193.77,115.43" style="stroke:#181818;stroke-width:1.0;"/></g><!--link Visiteur to UC2--><g id="link_Visiteur_UC2"><path d="M85.45,88.51 C119.28,82.71 172.9463,73.4939 215.0563,66.2739 " fill="none" id="Visiteur-to-UC2" style="stroke:#181818;stroke-width:1.0;"/><polygon fill="#181818" points="220.97,65.26,211.4235,62.8384,216.0419,66.1049,212.7754,70.7234,220.97,65.26" style="stroke:#181818;stroke-width:1.0;"/></g><!--link Client to UC1--><g id="link_Client_UC1"><path d="M78.99,232.37 C95.04,211.69 119.44,184.13 146.6,167 C163.31,156.46 177.3714,150.3343 196.1214,144.4943 " fill="none" id="Client-to-UC1" style="stroke:#181818;stroke-width:1.0;"/><polygon fill="#181818" points="201.85,142.71,192.0677,141.5673,197.0762,144.1969,194.4467,149.2054,201.85,142.71" style="stroke:#181818;stroke-width:1.0;"/></g><!--link Client to UC3--><g id="link_Client_UC3"><path d="M78.74,275.22 C95.8,287.93 121.7,305.74 146.6,317 C168.72,327 188.6281,333.2291 210.7781,338.7491 " fill="none" id="Client-to-UC3" style="stroke:#181818;stroke-width:1.0;"/><polygon fill="#181818" points="216.6,340.2,208.8344,334.1424,211.7484,338.9909,206.8998,341.905,216.6,340.2" style="stroke:#181818;stroke-width:1.0;"/></g><!--link Client to UC4--><g id="link_Client_UC4"><path d="M79.04,261.98 C105.46,264.62 147.8098,268.8631 189.1198,272.9931 " fill="none" id="Client-to-UC4" style="stroke:#181818;stroke-width:1.0;"/><polygon fill="#181818" points="195.09,273.59,186.5326,268.7145,190.1148,273.0926,185.7367,276.6748,195.09,273.59" style="stroke:#181818;stroke-width:1.0;"/></g><!--link Client to UC5--><g id="link_Client_UC5"><path d="M79.04,254.92 C107.7,247.54 156.3396,235.0265 199.6296,223.8765 " fill="none" id="Client-to-UC5" style="stroke:#181818;stroke-width:1.0;"/><polygon fill="#181818" points="205.44,222.38,195.7268,220.7512,200.598,223.6271,197.7222,228.4984,205.44,222.38" style="stroke:#181818;stroke-width:1.0;"/></g><!--SRC=[RP4zRiCm38LtdeBmqYb3_ZCL27A10aMx2nAJih0bWwI6ekXTklOSkLXLrudZrXFntlj0KgBpbWIVMTae2xXE7cgcQBtOXuOZgudh2AZfQ6W9XKylXe65l76Ay5DTFDM4bRwfKLEz0q1MyawBz-34fomiM9DYAobaDgtGAJuTvWFtUCTHVU6epnOt6Q5FCPP197sw7DBzQyebG9UnTP6loEe6yVxy5Gfp_aHDiNHhMhiCMW-SvhOLRWeO_Y-x6RWc1JxoDBOTCDTlDa7ju0F6FuopsNtti4bxCsrlf-qTmEMqlJF_Qom0Vizz1KPoEPQhiLn_0m00]--></g></svg>